<svg xmlns="http://www.w3.org/2000/svg" viewBox="0 0 1000 500" class="travel-map">
  <!-- Minimal world map - continent outlines -->
  <g class="continents" fill="none" stroke="rgb(200, 200, 200)" stroke-width="1">
    <!-- North America -->
    <path d="M 45 120 Q 90 80 150 85 Q 200 75 230 95 Q 250 90 270 100 L 280 130 Q 290 150 280 180 L 260 200 Q 240 220 220 210 L 180 230 Q 150 250 130 240 L 100 210 Q 80 180 70 150 Q 50 140 45 120 Z"/>

    <!-- Central America -->
    <path d="M 180 230 Q 200 250 210 280 Q 220 300 230 310 L 240 320"/>

    <!-- South America -->
    <path d="M 240 320 Q 260 340 280 380 Q 300 420 290 450 Q 270 480 250 470 L 230 440 Q 210 400 220 360 Q 225 340 240 320 Z"/>

    <!-- Europe -->
    <path d="M 440 100 Q 480 85 520 90 Q 540 95 550 110 L 540 130 Q 520 140 500 135 Q 470 140 450 130 Q 440 120 440 100 Z"/>

    <!-- Africa -->
    <path d="M 450 180 Q 480 170 520 175 Q 550 180 570 200 L 580 250 Q 575 300 560 340 Q 540 380 510 390 L 470 380 Q 450 350 455 300 Q 450 250 450 220 L 450 180 Z"/>

    <!-- Asia -->
    <path d="M 550 80 Q 600 60 680 70 Q 750 65 820 80 Q 870 90 900 120 L 920 160 Q 930 200 910 230 L 870 250 Q 820 260 760 250 Q 700 260 650 240 L 600 200 Q 560 160 550 130 L 550 80 Z"/>

    <!-- Southeast Asia / Indonesia -->
    <path d="M 760 280 Q 800 290 840 285 Q 870 290 890 300"/>
    <path d="M 800 310 Q 830 320 860 315"/>

    <!-- Australia -->
    <path d="M 820 360 Q 870 350 910 370 Q 940 390 935 430 Q 920 460 880 465 L 840 455 Q 810 430 815 400 Q 810 370 820 360 Z"/>

    <!-- New Zealand -->
    <path d="M 960 420 Q 970 440 965 460"/>
  </g>

  <!-- Pins will be inserted here by the Python script -->
  <g class="pins">
    <!-- PINS_PLACEHOLDER -->
  </g>
</svg>
