<svg version="1.1" xmlns="http://www.w3.org/2000/svg" viewBox="0 0 443.15749034672695 370.7665878860079" width="886.3149806934539" height="741.5331757720159">
  <!-- svg-source:excalidraw -->
  
  <defs>
    <style class="style-fonts">
      @font-face {
        font-family: "Virgil";
        src: url("https://excalidraw.com/Virgil.woff2");
      }
      @font-face {
        font-family: "Cascadia";
        src: url("https://excalidraw.com/Cascadia.woff2");
      }
    </style>
    
  </defs>
  <rect x="0" y="0" width="443.15749034672695" height="370.7665878860079" fill="#ffffff"></rect><g stroke-linecap="round"><g transform="translate(11.78443320352585 359.0417552818903) rotate(0 0.5731232178756045 -173.65846133888633)"><path d="M-0.21 -0.58 C0.04 -58.72, 0.43 -291.26, 0.56 -349.04 M-1.78 1.72 C-1.05 -56.28, 2.72 -289.59, 2.93 -348.09" stroke="#1e1e1e" stroke-width="1" fill="none"></path></g><g transform="translate(11.78443320352585 359.0417552818903) rotate(0 0.5731232178756045 -173.65846133888633)"><path d="M11.91 -320.88 C8.89 -327.06, 9.65 -333.34, 3.01 -348.32 M12.44 -320.46 C9.95 -328.36, 6.15 -339.12, 2.45 -347.09" stroke="#1e1e1e" stroke-width="1" fill="none"></path></g><g transform="translate(11.78443320352585 359.0417552818903) rotate(0 0.5731232178756045 -173.65846133888633)"><path d="M-8.61 -321.1 C-7.13 -327.19, -1.88 -333.43, 3.01 -348.32 M-8.08 -320.68 C-3.61 -328.66, -0.45 -339.35, 2.45 -347.09" stroke="#1e1e1e" stroke-width="1" fill="none"></path></g></g><mask></mask><g stroke-linecap="round"><g transform="translate(11.606219525411916 359.28024711583697) rotate(0 209.89715479917652 -0.35402958476510094)"><path d="M1.16 0.44 C71 0.51, 349.98 0.42, 419.49 0.41 M0.3 -0.37 C69.99 -0.63, 348.67 -1, 418.72 -1.17" stroke="#1e1e1e" stroke-width="1" fill="none"></path></g><g transform="translate(11.606219525411916 359.28024711583697) rotate(0 209.89715479917652 -0.35402958476510094)"><path d="M391.29 9.71 C401.64 3.85, 411.01 1.77, 419.73 -0.47 M389.63 8.64 C401.75 5.03, 410.76 1.76, 419.71 -1.15" stroke="#1e1e1e" stroke-width="1" fill="none"></path></g><g transform="translate(11.606219525411916 359.28024711583697) rotate(0 209.89715479917652 -0.35402958476510094)"><path d="M391.25 -10.81 C401.62 -9.82, 411.01 -5.05, 419.73 -0.47 M389.59 -11.88 C401.76 -7.86, 410.79 -3.5, 419.71 -1.15" stroke="#1e1e1e" stroke-width="1" fill="none"></path></g></g><mask></mask><g stroke-linecap="round" transform="translate(74.79869315313908 33.812275881325434) rotate(0 96.97575918256348 37.58867174044772)"><path d="M63.86 2.06 C75.97 -0.16, 92.73 -0.64, 106.93 0.1 C121.13 0.85, 136.98 3.81, 149.05 6.55 C161.12 9.28, 171.84 12.02, 179.32 16.52 C186.8 21.02, 192.28 28.02, 193.91 33.53 C195.54 39.05, 193.63 44.44, 189.11 49.61 C184.58 54.78, 176.63 60.77, 166.75 64.54 C156.88 68.3, 143.22 70.33, 129.87 72.2 C116.51 74.08, 100.8 76.19, 86.61 75.78 C72.42 75.38, 56.71 72.62, 44.71 69.76 C32.71 66.91, 22.11 63.22, 14.61 58.68 C7.11 54.14, 1.14 48.14, -0.29 42.52 C-1.72 36.91, 1.4 30.33, 6.02 24.99 C10.64 19.65, 15.79 14.5, 27.43 10.47 C39.06 6.45, 65.7 2.34, 75.84 0.84 C85.97 -0.66, 87.81 0.87, 88.22 1.46 M132.03 2.87 C145.3 4.59, 159.82 9.42, 169.66 13.39 C179.5 17.37, 187.08 21.87, 191.07 26.74 C195.07 31.61, 196.14 37.25, 193.61 42.63 C191.08 48.01, 183.75 54.3, 175.89 59.02 C168.04 63.74, 158.61 68.46, 146.5 70.97 C134.39 73.49, 117.42 73.89, 103.26 74.09 C89.09 74.29, 74.31 74.16, 61.53 72.18 C48.75 70.21, 36.27 66.34, 26.57 62.24 C16.86 58.15, 7.41 52.76, 3.32 47.62 C-0.78 42.47, -0.07 36.48, 2.01 31.39 C4.1 26.3, 8.04 21.52, 15.82 17.08 C23.59 12.64, 36.57 7.5, 48.67 4.77 C60.77 2.05, 74.37 1.24, 88.42 0.75 C102.48 0.26, 125.87 1.5, 133.02 1.81 C140.17 2.13, 132.21 1.79, 131.32 2.63" stroke="#1e1e1e" stroke-width="1" fill="none"></path></g><g stroke-linecap="round" transform="translate(239.2059719816 159.81044021839665) rotate(0 96.97575918256348 37.58867174044772)"><path d="M78.97 0.45 C92.1 -1.14, 109.41 0.27, 122.87 1.56 C136.32 2.85, 149.08 4.79, 159.69 8.21 C170.31 11.63, 180.96 16.83, 186.57 22.06 C192.19 27.29, 194.05 34.06, 193.4 39.58 C192.75 45.1, 188.97 50.52, 182.68 55.19 C176.4 59.87, 166.99 64.3, 155.7 67.63 C144.41 70.97, 128.75 74.15, 114.92 75.19 C101.09 76.23, 86.09 75.35, 72.73 73.88 C59.37 72.41, 45.55 69.75, 34.75 66.38 C23.96 63, 13.74 58.49, 7.96 53.63 C2.18 48.76, -0.33 42.73, 0.06 37.2 C0.45 31.67, 3.64 25.56, 10.3 20.43 C16.96 15.31, 26.99 9.75, 40.01 6.44 C53.03 3.13, 78.93 1.54, 88.41 0.6 C97.89 -0.34, 96.82 0.39, 96.89 0.8 M74.44 -0.01 C87.34 -1.48, 105.56 -0.32, 119.59 1.19 C133.61 2.7, 147.87 5.71, 158.61 9.06 C169.34 12.4, 177.98 16.72, 184 21.26 C190.01 25.8, 194.84 30.87, 194.71 36.29 C194.58 41.71, 189.62 48.6, 183.23 53.77 C176.84 58.94, 167.26 63.94, 156.39 67.3 C145.52 70.66, 131.36 73, 118.01 73.93 C104.66 74.87, 89.75 74.27, 76.29 72.89 C62.84 71.51, 48.55 68.76, 37.28 65.65 C26.01 62.53, 15.02 58.88, 8.68 54.18 C2.35 49.48, -0.67 42.96, -0.72 37.46 C-0.76 31.96, 2.37 26.11, 8.41 21.19 C14.46 16.26, 24.09 11.33, 35.56 7.92 C47.02 4.51, 70.27 1.53, 77.21 0.71 C84.15 -0.1, 77.32 2.54, 77.2 3.03" stroke="#1e1e1e" stroke-width="1" fill="none"></path></g><g stroke-linecap="round" transform="translate(22.96903000510747 201.09370918510706) rotate(0 96.97575918256348 71.3824404528203)"><path d="M123.24 3.24 C135.79 4.76, 149.71 10.88, 160.01 17.08 C170.3 23.28, 179.24 31.83, 185.03 40.44 C190.82 49.05, 194.55 59.12, 194.73 68.74 C194.91 78.36, 191.08 89.25, 186.12 98.15 C181.17 107.05, 174.26 115.33, 164.98 122.13 C155.71 128.93, 142.92 135.63, 130.46 138.96 C118.01 142.28, 103.26 142.7, 90.25 142.09 C77.25 141.49, 64.13 139.92, 52.43 135.34 C40.74 130.76, 28.33 122.45, 20.09 114.62 C11.86 106.78, 6.27 97.68, 3.03 88.34 C-0.21 78.99, -1.55 68.14, 0.67 58.54 C2.9 48.94, 8.95 38.72, 16.39 30.73 C23.83 22.75, 34.1 15.75, 45.29 10.64 C56.48 5.52, 69.96 1.37, 83.52 0.06 C97.08 -1.26, 118.85 1.79, 126.64 2.73 C134.44 3.68, 130.55 4.53, 130.29 5.71 M138.91 5.51 C150.95 8.23, 162.69 16.41, 171.06 24.21 C179.43 32.02, 185.52 42.87, 189.13 52.35 C192.74 61.82, 194.51 71.75, 192.73 81.07 C190.95 90.39, 185.08 100.09, 178.47 108.27 C171.86 116.45, 163.75 124.8, 153.09 130.17 C142.42 135.54, 127.85 138.89, 114.5 140.49 C101.15 142.1, 85.81 141.86, 72.97 139.8 C60.14 137.75, 47.57 133.99, 37.5 128.17 C27.43 122.35, 18.88 113.19, 12.55 104.88 C6.22 96.57, 0.63 87.95, -0.49 78.31 C-1.61 68.68, 1.39 56.56, 5.84 47.07 C10.3 37.57, 17.42 28.05, 26.25 21.35 C35.08 14.64, 46.67 10.53, 58.81 6.85 C70.95 3.17, 85.71 -0.85, 99.09 -0.72 C112.48 -0.59, 132.61 6.09, 139.14 7.62 C145.67 9.15, 139.13 7.54, 138.29 8.45" stroke="#1e1e1e" stroke-width="1" fill="none"></path></g><g transform="translate(135.1749597377334 58.93254212725134) rotate(0 31.609970092773438 12.5)"><text x="0" y="0" font-family="Virgil, Segoe UI Emoji" font-size="20px" fill="#1e1e1e" text-anchor="start" style="white-space: pre;" direction="ltr" dominant-baseline="text-before-edge">English</text></g><g transform="translate(57.26582142922075 230.8868429027582) rotate(0 24.91998291015625 12.5)"><text x="0" y="0" font-family="Virgil, Segoe UI Emoji" font-size="20px" fill="#1e1e1e" text-anchor="start" style="white-space: pre;" direction="ltr" dominant-baseline="text-before-edge">Math</text></g><g stroke-linecap="round" transform="translate(104.16201741180907 263.25452408498427) rotate(0 44.02402007293301 34.62586934180203)"><path d="M33.46 0.82 C40.76 -1.07, 51.35 0.18, 59.04 2.12 C66.73 4.05, 74.71 7.6, 79.62 12.44 C84.54 17.28, 88.06 24.68, 88.54 31.18 C89.02 37.67, 86.2 45.71, 82.5 51.4 C78.81 57.1, 73.2 62.42, 66.37 65.37 C59.54 68.31, 49.59 69.41, 41.5 69.08 C33.42 68.74, 24.37 67.04, 17.86 63.36 C11.34 59.68, 5.28 52.94, 2.4 46.99 C-0.48 41.04, -0.96 33.64, 0.6 27.66 C2.16 21.68, 5.69 15.65, 11.73 11.11 C17.78 6.57, 32.31 1.97, 36.89 0.42 C41.47 -1.13, 39.13 1.33, 39.21 1.8 M23.87 2.46 C30.36 -0.86, 41.36 -0.65, 49.02 0.19 C56.69 1.04, 63.55 3.6, 69.88 7.52 C76.21 11.44, 83.95 18.08, 87.02 23.72 C90.08 29.36, 90.25 35.37, 88.27 41.38 C86.28 47.39, 80.94 54.99, 75.12 59.78 C69.3 64.56, 61.41 69.07, 53.35 70.1 C45.29 71.12, 34.08 68.53, 26.77 65.91 C19.46 63.28, 13.89 59.05, 9.49 54.34 C5.09 49.64, 1.19 44, 0.38 37.67 C-0.43 31.34, 0.55 21.81, 4.63 16.36 C8.72 10.92, 21.44 6.73, 24.9 4.99 C28.36 3.26, 25.05 5.68, 25.41 5.97" stroke="#1e1e1e" stroke-width="1" fill="none"></path></g><g transform="translate(115.08022598567709 275.2079444655443) rotate(0 37.969970703125 25.00000000000003)"><text x="37.969970703125" y="0" font-family="Virgil, Segoe UI Emoji" font-size="20px" fill="#1e1e1e" text-anchor="middle" style="white-space: pre;" direction="ltr" dominant-baseline="text-before-edge">Convex </text><text x="37.969970703125" y="25" font-family="Virgil, Segoe UI Emoji" font-size="20px" fill="#1e1e1e" text-anchor="middle" style="white-space: pre;" direction="ltr" dominant-baseline="text-before-edge">opt</text></g><g transform="translate(272.7875055165632 184.16636825364372) rotate(0 63.959938049316406 12.5)"><text x="63.959938049316406" y="0" font-family="Virgil, Segoe UI Emoji" font-size="20px" fill="#1e1e1e" text-anchor="middle" style="white-space: pre;" direction="ltr" dominant-baseline="text-before-edge">Music Theory</text></g><g stroke-linecap="round"><g transform="translate(105.37806368599968 81.9352105508811) rotate(0 24.642925410703697 95.20698033002171)"><path d="M0.12 0.84 C8.5 32.46, 42.43 158.65, 50.56 190.18 M-1.28 0.24 C6.97 31.49, 41.14 157.24, 49.9 188.54" stroke="#1e1e1e" stroke-width="1" fill="none"></path></g><g transform="translate(105.37806368599968 81.9352105508811) rotate(0 24.642925410703697 95.20698033002171)"><path d="M33.93 164.96 C39.73 170.09, 44.99 179.18, 49.13 189.88 M33.24 164.72 C36.14 168.66, 39.48 175.06, 50.67 188.56" stroke="#1e1e1e" stroke-width="1" fill="none"></path></g><g transform="translate(105.37806368599968 81.9352105508811) rotate(0 24.642925410703697 95.20698033002171)"><path d="M53.72 159.52 C53.18 166.41, 52.09 177.26, 49.13 189.88 M53.02 159.28 C51.63 164.49, 50.62 172.09, 50.67 188.56" stroke="#1e1e1e" stroke-width="1" fill="none"></path></g></g><mask></mask><g stroke-linecap="round"><g transform="translate(217.01058749874983 99.15903838272504) rotate(0 88.45346617875407 37.6624284036254)"><path d="M-0.37 0.42 C28.96 12.85, 145.66 63.39, 175.13 75.73 M1.64 -0.4 C31.4 12.15, 148.25 61.17, 177.27 73.78" stroke="#1e1e1e" stroke-width="1" fill="none"></path></g><g transform="translate(217.01058749874983 99.15903838272504) rotate(0 88.45346617875407 37.6624284036254)"><path d="M148.02 70.37 C154.78 73, 159.53 74.33, 176.45 73.65 M147.27 72.09 C155.47 72.8, 163.2 73.07, 176.46 73.4" stroke="#1e1e1e" stroke-width="1" fill="none"></path></g><g transform="translate(217.01058749874983 99.15903838272504) rotate(0 88.45346617875407 37.6624284036254)"><path d="M156.06 51.49 C161.15 58.45, 164.05 64.12, 176.45 73.65 M155.31 53.21 C161.45 59.16, 166.97 64.62, 176.46 73.4" stroke="#1e1e1e" stroke-width="1" fill="none"></path></g></g><mask></mask><g stroke-linecap="round" transform="translate(212.82518685245418 95.18592167653588) rotate(0 4.046498808942147 2.729552143467032)"><path d="M2.02 0.63 C2.84 0.56, 3.9 0.8, 4.9 0.88 C5.9 0.96, 7.49 0.67, 8.02 1.1 C8.55 1.53, 8.42 2.97, 8.08 3.45 C7.74 3.94, 6.51 3.79, 5.98 4 C5.45 4.2, 5.77 4.62, 4.9 4.69 C4.03 4.77, 1.65 4.74, 0.78 4.45 C-0.09 4.16, -0.19 3.49, -0.33 2.94 C-0.46 2.39, -0.48 1.55, -0.04 1.16 C0.41 0.76, 1.87 0.78, 2.31 0.58 C2.76 0.39, 2.42 -0.08, 2.62 -0.02 M4.27 -0.03 C4.75 0.48, 6.11 2.31, 6.58 2.86 C7.06 3.41, 7.16 3.05, 7.14 3.28 C7.11 3.51, 6.71 3.73, 6.41 4.24 C6.12 4.74, 6.42 6.22, 5.36 6.31 C4.3 6.4, 1.19 5.32, 0.07 4.78 C-1.04 4.24, -1.44 3.81, -1.32 3.05 C-1.21 2.29, 0.12 0.56, 0.78 0.23 C1.44 -0.1, 2.05 1.05, 2.63 1.07 C3.21 1.08, 3.99 0.4, 4.26 0.32 C4.53 0.23, 3.91 0.61, 4.26 0.56" stroke="none" stroke-width="0" fill="#ffc9c9"></path><path d="M5.21 -0.55 C6.12 -0.45, 7.24 0.95, 7.58 1.46 C7.91 1.96, 7.47 1.83, 7.23 2.45 C6.99 3.06, 6.85 4.52, 6.16 5.14 C5.46 5.77, 3.94 6.35, 3.07 6.21 C2.21 6.06, 1.59 4.85, 0.96 4.26 C0.34 3.67, -0.75 3.2, -0.65 2.66 C-0.56 2.11, 0.89 1.54, 1.54 0.99 C2.2 0.44, 2.3 -0.46, 3.26 -0.63 C4.22 -0.8, 6.79 -0.38, 7.32 -0.03 C7.86 0.32, 6.53 1.52, 6.48 1.48 M4.27 -0.26 C4.77 -0.04, 5.97 1.92, 6.38 2.52 C6.78 3.12, 6.81 2.96, 6.69 3.32 C6.56 3.68, 6.15 4.52, 5.61 4.67 C5.07 4.81, 4.2 4.33, 3.47 4.18 C2.73 4.02, 1.9 3.61, 1.21 3.72 C0.52 3.83, -0.69 5.06, -0.68 4.84 C-0.67 4.61, 0.55 3.11, 1.27 2.37 C1.98 1.63, 2.8 0.86, 3.59 0.4 C4.38 -0.06, 5.6 -0.36, 6.02 -0.39 C6.44 -0.42, 6.1 -0.07, 6.12 0.22" stroke="#e03131" stroke-width="1" fill="none"></path></g><g stroke-linecap="round" transform="translate(100.76192129126548 79.63846676101315) rotate(0 4.046498808942147 2.729552143467032)"><path d="M3.26 0.4 C3.92 0.36, 4.49 0.45, 5.41 0.57 C6.33 0.69, 8.35 0.44, 8.78 1.11 C9.21 1.79, 8.39 3.93, 8 4.63 C7.61 5.33, 7.1 5.25, 6.43 5.33 C5.75 5.41, 4.78 5.25, 3.97 5.13 C3.15 5.01, 2.15 5.01, 1.54 4.6 C0.92 4.19, 0.22 3.26, 0.28 2.68 C0.35 2.11, 1.55 1.62, 1.93 1.15 C2.31 0.68, 2.13 -0.08, 2.56 -0.14 C2.99 -0.21, 4.27 0.86, 4.52 0.77 M5.59 -0.77 C6.38 -0.83, 7.21 0.58, 7.85 1.34 C8.5 2.1, 9.53 3.16, 9.47 3.77 C9.41 4.37, 8.27 4.84, 7.5 4.98 C6.73 5.11, 5.77 4.84, 4.87 4.6 C3.97 4.36, 3.04 3.91, 2.09 3.54 C1.15 3.16, -0.81 2.79, -0.82 2.36 C-0.84 1.92, 1.27 1.43, 2 0.92 C2.73 0.4, 2.88 -0.59, 3.56 -0.75 C4.23 -0.91, 5.51 0, 6.02 -0.03 C6.54 -0.07, 6.95 -1.08, 6.64 -0.96" stroke="none" stroke-width="0" fill="#ffc9c9"></path><path d="M2.64 -0.27 C3.41 -0.29, 4.58 0.45, 5.33 0.74 C6.07 1.04, 6.59 0.96, 7.11 1.51 C7.64 2.06, 8.51 3.37, 8.49 4.04 C8.47 4.72, 7.89 5.48, 7.01 5.58 C6.13 5.68, 4.2 4.9, 3.19 4.62 C2.19 4.35, 1.34 4.33, 0.97 3.94 C0.6 3.55, 1 2.8, 0.98 2.31 C0.95 1.81, 0.5 1.21, 0.82 0.98 C1.13 0.76, 2.33 1.27, 2.87 0.97 C3.41 0.68, 3.95 -0.54, 4.03 -0.8 M3.8 0.92 C4.38 1.07, 4.79 0.45, 5.29 0.71 C5.79 0.97, 6.24 2, 6.79 2.48 C7.35 2.96, 9.01 3.02, 8.62 3.58 C8.22 4.15, 5.34 5.32, 4.42 5.86 C3.5 6.39, 3.7 7.09, 3.1 6.79 C2.49 6.49, 1.43 4.97, 0.8 4.05 C0.18 3.13, -0.89 1.93, -0.65 1.27 C-0.42 0.6, 1.54 0.37, 2.2 0.06 C2.87 -0.25, 3.31 -0.42, 3.35 -0.6 C3.38 -0.78, 2.42 -1.04, 2.41 -1.02" stroke="#e03131" stroke-width="1" fill="none"></path></g><g stroke-linecap="round" transform="translate(151.99480067020636 273.0963444324847) rotate(0 4.046498808942147 2.729552143467032)"><path d="M2.41 0.35 C3.22 -0.21, 4.31 -0.71, 4.97 -0.74 C5.62 -0.77, 5.91 -0.33, 6.32 0.18 C6.73 0.7, 7.2 1.51, 7.4 2.33 C7.6 3.15, 7.86 4.64, 7.51 5.1 C7.17 5.56, 6.16 5.25, 5.33 5.1 C4.5 4.95, 3.41 4.33, 2.55 4.21 C1.69 4.1, 0.64 4.89, 0.18 4.41 C-0.29 3.93, -0.66 2.01, -0.23 1.35 C0.2 0.69, 2.19 0.79, 2.74 0.45 C3.3 0.1, 2.9 -0.82, 3.1 -0.73 M4.38 0.11 C5 0.4, 6.09 1.02, 6.51 1.31 C6.93 1.6, 6.7 1.38, 6.9 1.84 C7.11 2.31, 8.12 3.56, 7.75 4.07 C7.39 4.59, 5.79 4.51, 4.72 4.94 C3.65 5.36, 2.03 6.68, 1.34 6.63 C0.65 6.58, 0.68 5.58, 0.57 4.65 C0.45 3.72, 0.47 1.66, 0.65 1.06 C0.83 0.45, 0.95 1.42, 1.63 1.02 C2.31 0.62, 4.17 -1.16, 4.71 -1.35 C5.25 -1.53, 5.16 -0.38, 4.87 -0.08" stroke="none" stroke-width="0" fill="#a5d8ff"></path><path d="M5.24 -0.54 C6.03 -0.45, 7.11 -0.11, 7.75 0.38 C8.39 0.88, 9.23 1.88, 9.07 2.44 C8.91 3.01, 7.4 3.41, 6.78 3.78 C6.17 4.16, 6.03 4.54, 5.39 4.68 C4.76 4.82, 3.79 4.7, 2.99 4.6 C2.18 4.5, 1.02 4.63, 0.57 4.08 C0.12 3.53, 0.24 2.07, 0.3 1.31 C0.37 0.54, 0.05 -0.17, 0.94 -0.5 C1.83 -0.83, 4.71 -0.93, 5.66 -0.67 C6.61 -0.41, 6.76 0.91, 6.62 1.05 M5.37 -1.05 C5.89 -1.13, 6.53 -0.84, 6.85 -0.27 C7.16 0.31, 7.29 1.49, 7.27 2.39 C7.24 3.3, 7.22 4.8, 6.68 5.15 C6.15 5.5, 4.76 4.38, 4.08 4.51 C3.41 4.64, 3.12 6.23, 2.64 5.93 C2.15 5.64, 1.77 3.51, 1.17 2.75 C0.56 1.99, -1.23 1.88, -0.98 1.38 C-0.72 0.89, 1.82 -0.03, 2.71 -0.22 C3.6 -0.41, 4.02 0.38, 4.36 0.26 C4.71 0.14, 4.84 -1.18, 4.79 -0.94" stroke="#1971c2" stroke-width="1" fill="none"></path></g><g stroke-linecap="round" transform="translate(386.1622513227733 173.99752936461863) rotate(0 4.046498808942147 2.729552143467032)"><path d="M2.64 -0.31 C3.41 -0.64, 4.28 -1.08, 5.02 -0.67 C5.75 -0.26, 6.7 1.6, 7.05 2.15 C7.39 2.69, 7.04 2.21, 7.1 2.59 C7.16 2.98, 7.93 4.07, 7.39 4.46 C6.86 4.86, 4.98 4.76, 3.91 4.96 C2.84 5.17, 1.54 6.11, 0.97 5.7 C0.4 5.28, 0.6 3.12, 0.47 2.47 C0.34 1.83, -0.34 2.2, 0.2 1.82 C0.73 1.44, 3.14 0.41, 3.67 0.2 C4.19 -0.01, 3.59 0.54, 3.35 0.57 M4.34 0.5 C4.85 0.34, 3.68 0.07, 4.48 0.37 C5.29 0.66, 8.63 1.88, 9.17 2.28 C9.71 2.68, 8.08 2.49, 7.72 2.75 C7.35 3.01, 7.86 3.57, 6.97 3.85 C6.09 4.12, 3.37 4.28, 2.4 4.39 C1.43 4.51, 1.81 4.83, 1.17 4.55 C0.53 4.27, -1.39 3.03, -1.43 2.69 C-1.46 2.35, 0.31 2.89, 0.96 2.49 C1.61 2.1, 2.14 0.57, 2.48 0.32 C2.81 0.08, 2.79 0.77, 2.96 1" stroke="none" stroke-width="0" fill="#b2f2bb"></path><path d="M3.62 0.05 C4.42 -0.01, 6.21 -0.42, 6.95 0.09 C7.68 0.6, 7.82 2.45, 8.05 3.11 C8.27 3.76, 8.74 3.72, 8.31 4.02 C7.87 4.32, 6.28 4.73, 5.42 4.89 C4.56 5.05, 4.1 5.19, 3.15 4.99 C2.19 4.8, 0.05 4.18, -0.33 3.74 C-0.72 3.29, 0.69 2.92, 0.85 2.32 C1 1.72, -0.11 0.52, 0.6 0.14 C1.31 -0.25, 4.22 0.05, 5.1 0.03 C5.98 0, 6.09 0.09, 5.88 0 M1.2 0.51 C1.77 0.4, 4.39 0.94, 5.31 1.02 C6.23 1.11, 6.05 0.7, 6.72 1.02 C7.38 1.34, 9.28 2.57, 9.3 2.96 C9.33 3.35, 7.54 3.03, 6.88 3.38 C6.21 3.73, 6.34 5.02, 5.31 5.07 C4.28 5.11, 1.45 4.08, 0.69 3.68 C-0.07 3.27, 0.9 2.87, 0.75 2.65 C0.6 2.42, -0.65 2.87, -0.22 2.31 C0.21 1.76, 2.62 -0.21, 3.32 -0.67 C4.02 -1.12, 3.89 -0.77, 3.98 -0.41" stroke="#2f9e44" stroke-width="1" fill="none"></path></g></svg>